<?xml version="1.0" standalone="no"?>
<!DOCTYPE svg PUBLIC "-//W3C//DTD SVG 20010904//EN"
 "http://www.w3.org/TR/2001/REC-SVG-20010904/DTD/svg10.dtd">
<svg version="1.0" xmlns="http://www.w3.org/2000/svg"
 width="261.000000pt" height="261.000000pt" viewBox="0 0 261.000000 261.000000"
 preserveAspectRatio="xMidYMid meet">
<metadata>
Created by potrace 1.14, written by Peter Selinger 2001-2017
</metadata>
<g transform="translate(0.000000,261.000000) scale(0.100000,-0.100000)"
fill="#000000" stroke="none">
<path d="M683 2427 c-26 -14 -53 -44 -46 -51 4 -3 2 -6 -4 -6 -12 0 -11 -189
2 -209 5 -10 4 -12 -3 -7 -6 4 -21 2 -33 -5 -16 -8 -20 -8 -14 0 14 23 -59
-15 -78 -41 -27 -36 -28 -181 -2 -226 10 -17 22 -29 26 -27 4 3 10 -2 13 -11
3 -8 11 -12 16 -9 6 4 17 1 25 -5 12 -10 15 -10 15 0 0 9 4 9 13 2 12 -10 17
-12 37 -12 6 0 9 -12 7 -27 -2 -16 0 -36 5 -46 6 -12 5 -23 -3 -33 -6 -8 -7
-14 -2 -14 5 0 11 -21 12 -47 3 -70 9 -125 16 -131 2 -3 0 -11 -6 -18 -7 -8
-7 -14 1 -19 7 -4 3 -17 -12 -37 -24 -35 -27 -88 -14 -263 3 -49 8 -130 11
-180 10 -177 14 -196 45 -226 9 -10 25 -19 36 -21 14 -2 19 -14 22 -48 2 -25
7 -47 10 -50 4 -3 8 -34 10 -70 3 -67 9 -135 12 -135 1 0 4 -29 6 -65 3 -35
10 -68 17 -72 9 -6 9 -8 -1 -8 -7 0 -11 -4 -8 -9 3 -5 8 -29 10 -54 6 -57 27
-99 58 -115 14 -8 75 -14 155 -16 72 -2 135 -6 140 -8 19 -10 529 -2 548 9 13
7 22 23 23 45 2 18 5 49 8 68 4 37 13 117 19 185 2 22 4 40 5 40 1 0 3 16 5
35 2 19 7 67 11 105 4 39 7 89 8 112 1 37 5 45 31 58 17 8 26 15 20 15 -5 0
-4 4 3 8 18 12 33 100 36 210 0 17 3 32 6 32 3 0 6 21 6 48 2 52 11 177 14
177 1 0 3 33 5 74 2 58 -2 82 -16 108 -19 34 -25 74 -12 87 11 11 12 36 2 36
-6 0 -7 6 -3 12 5 7 9 29 11 48 9 122 12 151 19 161 4 8 3 9 -4 5 -8 -5 -10
-1 -5 11 9 24 22 32 45 28 10 -2 18 1 18 6 0 6 4 8 9 5 20 -13 68 16 84 50 25
51 23 179 -3 221 -21 35 -84 60 -106 42 -15 -12 -21 -2 -17 31 8 59 8 180 0
180 -4 0 -6 4 -3 8 5 8 -15 33 -46 57 -14 12 -143 14 -154 3 -4 -4 -15 -3 -25
3 -11 5 -19 6 -19 2 0 -9 -21 -10 -360 -13 -129 -1 -300 1 -380 5 -244 12
-258 12 -277 2z m387 -2157 c0 -5 -2 -10 -4 -10 -3 0 -8 5 -11 10 -3 6 -1 10
4 10 6 0 11 -4 11 -10z"/>
</g>
</svg>
